<svg width="33" height="24" viewBox="0 0 33 24" fill="none" xmlns="http://www.w3.org/2000/svg">
<path fill-rule="evenodd" clip-rule="evenodd" d="M18.8635 0.650784C19.1433 0.243432 19.6058 0 20.1 0H26.1C26.9285 0 27.6 0.671568 27.6 1.5C27.6 2.32843 26.9285 3 26.1 3H22.284L25.0822 10.2754C25.4172 10.2255 25.7573 10.2 26.1 10.2C27.93 10.2 29.6851 10.927 30.979 12.221C32.273 13.515 33 15.27 33 17.1C33 18.93 32.273 20.6851 30.979 21.979C29.6851 23.273 27.93 24 26.1 24C24.27 24 22.515 23.273 21.221 21.979C19.927 20.6851 19.2 18.93 19.2 17.1C19.2 16.1184 19.4091 15.1584 19.8028 14.2796L17.6789 16.8281C17.5692 16.9675 17.4328 17.0897 17.2717 17.1862C17.0753 17.304 16.8627 17.3717 16.6489 17.393L13.769 17.753C13.6179 19.3433 12.9182 20.8399 11.779 21.979C10.485 23.273 8.73 24 6.9 24C5.07 24 3.31495 23.273 2.02096 21.979C0.726962 20.6851 0 18.93 0 17.1C0 15.27 0.726962 13.515 2.02096 12.221C3.31495 10.927 5.07 10.2 6.9 10.2C7.46654 10.2 8.02594 10.2697 8.56666 10.4043L9.87778 7.77845L8.45071 5.4H6.9C6.07157 5.4 5.4 4.72843 5.4 3.9C5.4 3.07157 6.07157 2.4 6.9 2.4H9.27252C9.2899 2.39969 9.3073 2.39969 9.32465 2.4H12.9C13.7284 2.4 14.4 3.07157 14.4 3.9C14.4 4.72843 13.7284 5.4 12.9 5.4H11.9493L12.8634 6.92359L12.8824 6.95522L16.6996 13.3172L21.0364 8.11322L18.7 2.03846C18.5226 1.57721 18.5838 1.05816 18.8635 0.650784ZM24.6998 17.6386L23.4077 14.2784C23.3856 14.2994 23.3639 14.3207 23.3423 14.3423C22.6109 15.0737 22.2 16.0656 22.2 17.1C22.2 18.1344 22.6109 19.1263 23.3423 19.8576C24.0737 20.5891 25.0656 21 26.1 21C27.1344 21 28.1263 20.5891 28.8576 19.8576C29.5891 19.1263 30 18.1344 30 17.1C30 16.0656 29.5891 15.0737 28.8576 14.3423C28.1518 13.6363 27.203 13.2289 26.2078 13.2015L27.4999 16.5614C27.7973 17.3347 27.4116 18.2026 26.6386 18.4999C25.8653 18.7975 24.9974 18.4116 24.6998 17.6386ZM22.2696 11.3195L22.2822 11.3524C22.2515 11.3728 22.221 11.3934 22.1905 11.4144L22.2696 11.3195ZM11.7079 10.8287L10.6543 12.9388L9.49327 15.2642L12.0714 14.9419L14.029 14.6971L11.7079 10.8287ZM10.6583 18.1418L7.08607 18.5885C6.53729 18.6571 5.9953 18.4181 5.67574 17.9666C5.35618 17.5152 5.31094 16.9248 5.55799 16.4299L7.16618 13.2091C7.07786 13.203 6.98909 13.2 6.9 13.2C5.86565 13.2 4.87368 13.6109 4.14228 14.3423C3.41088 15.0737 3 16.0656 3 17.1C3 18.1344 3.41088 19.1263 4.14228 19.8576C4.87368 20.5891 5.86565 21 6.9 21C7.93433 21 8.92632 20.5891 9.65772 19.8576C10.1379 19.3776 10.48 18.785 10.6583 18.1418Z" fill="#B8B8B8"/>
</svg>
